<svg width="192" height="61" viewBox="0 0 192 61" fill="none" xmlns="http://www.w3.org/2000/svg">
<path d="M36.0723 52.0341C35.9733 52.1655 35.9112 52.2707 35.8276 52.3558C34.0377 54.1772 32.0005 55.6401 29.6772 56.7109C27.8545 57.5512 25.9469 58.088 23.9799 58.4217C21.9641 58.7635 19.9328 58.8251 17.8943 58.6556C17.6149 58.6321 17.6864 58.4566 17.6984 58.2971C17.7586 57.4869 17.8722 56.6767 17.8716 55.8666C17.8689 54.0244 17.2914 52.3618 16.1511 50.9097C15.6057 50.2154 14.9053 49.6988 14.1273 49.2987C13.2771 48.8611 12.3754 48.9717 11.4798 49.1225C10.5427 49.2806 9.59966 49.3798 8.65791 49.2297C7.66068 49.0715 6.81585 48.6266 6.31657 47.6965C6.18222 47.4465 6.13276 47.1517 6.03117 46.8823C5.99574 46.7878 5.9396 46.6605 5.8614 46.6296C4.56741 46.1237 4.12828 44.9945 3.74664 43.7984C3.55615 43.202 3.62031 42.8133 4.16237 42.3918C4.64494 42.0165 4.95841 41.4215 5.33471 40.9142C5.39353 40.8344 5.38751 40.7058 5.43898 40.4786C4.42972 40.7567 3.59024 41.1628 2.83831 41.7813C2.18931 41.394 1.98344 40.2943 2.48874 39.7247C3.29481 38.8174 4.12093 37.9281 4.93101 37.0241C5.7451 36.1161 6.4322 35.1304 6.94217 34.0086C7.50428 32.7729 8.08176 31.5385 8.91056 30.4476C10.1611 28.8011 11.7224 27.5426 13.6019 26.6909C14.2583 26.3933 14.9327 26.1353 15.6325 25.8452C15.4086 25.3238 15.1606 24.7924 14.9507 24.247C14.0143 21.8151 13.0873 19.3805 12.1609 16.9447C12.07 16.7061 12.0058 16.4561 11.9403 16.2089C11.8935 16.032 11.8053 15.9649 11.6275 16.0393C11.3996 16.1345 11.2633 16.0306 11.1309 15.8423C10.8629 15.4603 10.6036 15.0643 10.2814 14.7306C9.82825 14.2615 9.21066 14.2079 8.5904 14.5081C8.48012 14.5617 8.37318 14.6207 8.26624 14.6803C7.54037 15.0851 7.44145 15.2848 7.59318 16.107C7.63127 16.3141 7.6286 16.4776 7.41672 16.5868C6.63605 16.9889 5.85739 17.3963 5.07739 17.7997C5.05065 17.8138 5.01389 17.8078 4.95507 17.8145C4.74119 17.3702 4.5253 16.9219 4.30875 16.4729C3.84422 15.5093 3.38036 14.5463 2.91584 13.5827C2.70663 13.1484 2.73003 13.0854 3.16113 12.8764C3.74129 12.5949 4.32078 12.3101 4.89826 12.024C5.31266 11.8182 5.43029 11.8517 5.67626 12.2565C5.92824 12.672 5.93893 12.6968 6.37405 12.5065C6.74767 12.3436 7.11328 12.1446 7.44613 11.91C7.88726 11.5998 7.90932 11.0764 8.02361 10.6013C8.06639 10.4251 8.16063 10.1825 8.29832 10.1215C9.93385 9.39642 11.552 8.61372 13.2363 8.02134C14.8979 7.43699 16.5341 7.8585 18.0821 8.60099C19.4269 9.24565 20.6086 10.1342 21.7241 11.1153C21.8204 11.1997 21.8952 11.3096 22.0195 11.455C21.412 11.6139 20.886 11.7097 20.3359 11.4061C19.3387 10.8559 18.3073 10.3761 17.1464 10.3058C16.5188 10.2676 15.9025 10.342 15.3451 10.6757C14.8699 10.9598 14.5611 11.5542 14.6633 12.099C14.7703 12.6659 14.9039 13.2315 15.071 13.783C15.1653 14.0933 15.2722 14.3479 14.797 14.433C14.8424 14.5604 14.8658 14.6676 14.916 14.7614C16.4499 17.6409 17.9905 20.5177 19.5198 23.3999C19.7751 23.8817 19.995 24.383 20.2082 24.8856C20.2884 25.0745 20.3873 25.1362 20.5832 25.1174C20.9588 25.0813 21.3418 25.0953 21.7121 25.0317C22.6612 24.8682 23.2748 24.1531 23.3997 23.0937C23.5 22.2413 23.5495 21.3808 23.6892 20.5358C23.9124 19.1849 24.1276 17.8272 24.4638 16.5017C24.808 15.1447 25.2258 13.7978 25.7324 12.4937C26.7938 9.76231 28.3438 7.32441 30.4398 5.26647C31.7037 4.02608 33.1127 2.97198 34.8144 2.40037C35.2796 2.24423 35.7909 2.19799 36.2855 2.16382C36.7206 2.13366 37.1002 2.36351 37.2339 2.77095C37.4511 3.43235 37.6483 4.11387 37.7332 4.80208C38.0059 7.02956 37.9036 9.249 37.5253 11.4644C37.1183 13.8507 36.4258 16.1465 35.4794 18.3666C34.5938 20.4433 33.4876 22.3988 32.2017 24.2523C31.5734 25.1583 30.9251 26.0509 30.3188 26.9717C29.7928 27.7704 29.7407 28.6255 30.0989 29.5241C30.5648 30.6922 31.0681 31.8521 31.4237 33.055C32.0306 35.1096 32.1495 37.2151 31.8334 39.3461C31.6095 40.8545 31.1623 42.2966 30.645 43.722C30.117 45.1761 30.4632 46.4862 31.3221 47.7005C32.1936 48.9328 33.3119 49.9166 34.5002 50.8273C35.0115 51.2193 35.5215 51.6126 36.0723 52.0362V52.0341ZM20.894 47.2093C22.3584 47.1858 23.1411 46.633 23.502 45.4683C23.7159 44.7774 23.9498 44.0919 24.1824 43.407C24.9912 41.0247 25.8146 38.6472 26.6066 36.2595C26.8319 35.58 27.0865 34.8838 26.7704 34.146C26.4563 33.4122 26.6481 32.7012 26.9214 32.0056C27.118 31.505 27.4588 31.1351 27.9795 30.9649C28.3518 30.8429 28.6846 30.3772 28.5703 30.006C28.5075 29.8016 28.323 29.553 28.1346 29.4826C27.0625 29.0825 25.9723 28.7314 24.8896 28.3608C24.522 28.2348 24.161 28.0861 23.7894 27.9735C23.4579 27.873 23.1658 28.015 23.0041 28.3159C22.7868 28.7193 22.8109 29.0356 23.0248 29.2923C23.1625 29.4571 23.3369 29.6649 23.3403 29.8559C23.3583 30.9059 23.0656 31.8716 22.1539 32.468C21.5898 32.8372 21.2502 33.3117 21.0357 33.9067C20.624 35.0479 20.2276 36.1952 19.8366 37.3438C19.0934 39.525 18.3501 41.7069 17.6243 43.8942C17.4404 44.4484 17.526 45.0093 17.8355 45.5005C18.568 46.6625 19.6702 47.161 20.8946 47.2093H20.894ZM33.3874 9.70535C32.9162 9.53581 32.4764 9.38235 32.0406 9.21951C31.8434 9.1458 31.7345 9.21951 31.6389 9.39307C31.161 10.2609 30.6704 11.1213 30.1965 11.9918C30.1203 12.1319 30.0809 12.3061 30.0749 12.4669C30.0548 13.0352 30.0729 13.6048 30.0435 14.1717C30.0261 14.5121 29.996 14.8659 29.8884 15.1856C28.8711 18.2152 27.8365 21.2388 26.8065 24.2637C26.4335 25.36 26.0559 26.455 25.6936 27.5547C25.6609 27.6538 25.6896 27.8609 25.7478 27.887C26.0873 28.0378 26.4436 28.1491 26.8132 28.2804C26.8773 28.1135 26.9288 27.9916 26.9716 27.8669C28.3197 23.9273 29.6658 19.987 31.0153 16.048C31.1196 15.7431 31.1964 15.4121 31.3722 15.1514C31.7879 14.5342 32.2571 13.9532 32.7016 13.3548C32.7738 13.2577 32.8707 13.1551 32.8881 13.0446C33.0605 11.9456 33.2189 10.8446 33.3867 9.70602L33.3874 9.70535ZM16.3303 36.543C16.8168 36.4512 17.1885 36.421 17.5327 36.3084C18.7725 35.9023 19.4102 34.9669 19.6361 33.7338C19.854 32.5437 19.9409 32.7561 18.9543 32.3092C17.8589 31.8126 16.7153 31.7148 15.6732 32.4231C14.4976 33.2232 14.2275 34.4984 14.1139 35.8159C14.1079 35.8822 14.2048 36.0049 14.275 36.0236C14.9908 36.2146 15.7113 36.3889 16.3296 36.543H16.3303Z" fill="url(#paint0_linear_152_347)"/>
<path d="M20.8951 47.2093C19.6707 47.161 18.5685 46.6625 17.8359 45.5005C17.5258 45.0086 17.4403 44.4484 17.6247 43.8942C18.3506 41.7069 19.0938 39.525 19.8371 37.3438C20.2288 36.1952 20.6244 35.0479 21.0362 33.9067C21.2507 33.3117 21.5902 32.8372 22.1544 32.468C23.066 31.8716 23.3588 30.9066 23.3407 29.8559C23.3374 29.6649 23.163 29.4571 23.0253 29.2923C22.8114 29.0356 22.7873 28.7193 23.0045 28.3159C23.167 28.015 23.459 27.873 23.7899 27.9735C24.1615 28.0861 24.5224 28.2348 24.89 28.3608C25.9728 28.7314 27.063 29.0825 28.135 29.4826C28.3235 29.553 28.508 29.8016 28.5708 30.006C28.6851 30.3772 28.3523 30.8429 27.98 30.9649C27.4593 31.1358 27.1178 31.5057 26.9219 32.0056C26.6492 32.7012 26.4567 33.4122 26.7709 34.146C27.087 34.8838 26.8324 35.58 26.6071 36.2595C25.8158 38.6478 24.9916 41.0247 24.1829 43.407C23.9503 44.0919 23.7164 44.7774 23.5025 45.4683C23.1416 46.633 22.3589 47.1858 20.8945 47.2093H20.8951ZM23.2585 34.5098C23.2264 34.2063 23.1362 33.9791 22.8602 33.9074C22.5674 33.831 22.3589 33.9878 22.2346 34.2344C22.1256 34.4522 22.0514 34.6881 21.9726 34.9193C21.1839 37.2245 20.3958 39.5297 19.6098 41.8356C19.3585 42.5727 19.1032 43.3078 18.8673 44.0497C18.759 44.3901 18.8993 44.7205 19.1707 44.8103C19.4748 44.9101 19.7034 44.7674 19.8264 44.4993C19.9921 44.1374 20.1338 43.7629 20.2622 43.3856C21.1003 40.9343 21.9345 38.481 22.7659 36.0277C22.941 35.5123 23.1021 34.9917 23.2579 34.5092L23.2585 34.5098ZM25.6594 35.3341C25.6507 34.9829 25.5678 34.7645 25.2831 34.6881C25.0478 34.6244 24.7036 34.804 24.602 35.058C24.4823 35.3569 24.3827 35.6645 24.2798 35.97C23.4778 38.3423 22.677 40.7151 21.877 43.088C21.6745 43.6885 21.4599 44.2862 21.2808 44.894C21.1932 45.1922 21.3657 45.5025 21.619 45.5755C21.9191 45.662 22.151 45.5279 22.288 45.27C22.3963 45.0662 22.4585 44.8377 22.5333 44.6173C23.4443 41.9307 24.3553 39.2442 25.2637 36.5571C25.4094 36.1268 25.5437 35.6926 25.6594 35.3341Z" fill="white"/>
<path d="M33.3875 9.70535C33.2197 10.8439 33.0613 11.9449 32.8889 13.0439C32.8715 13.1545 32.7746 13.257 32.7024 13.3542C32.2579 13.9519 31.7887 14.5336 31.373 15.1507C31.1972 15.4114 31.121 15.7425 31.0161 16.0474C29.6666 19.9863 28.3198 23.9266 26.9724 27.8663C26.9296 27.9909 26.8781 28.1129 26.814 28.2797C26.445 28.1484 26.0881 28.0372 25.7486 27.8864C25.6904 27.8609 25.6617 27.6532 25.6944 27.554C26.0567 26.4543 26.4343 25.3594 26.8073 24.263C27.8373 21.2381 28.8719 18.2145 29.8892 15.1849C29.9968 14.8653 30.0262 14.5115 30.0443 14.171C30.0737 13.6034 30.055 13.0338 30.0757 12.4662C30.0817 12.3061 30.1211 12.1312 30.1973 11.9911C30.6705 11.1206 31.1618 10.2602 31.6397 9.3924C31.7353 9.21817 31.8442 9.14513 32.0414 9.21884C32.4778 9.38168 32.917 9.53514 33.3882 9.70468L33.3875 9.70535Z" fill="white"/>
<path d="M16.3311 36.543C15.7129 36.3889 14.9924 36.2146 14.2765 36.0236C14.207 36.0049 14.1101 35.8822 14.1154 35.8159C14.2291 34.4984 14.4984 33.2232 15.6748 32.4231C16.7161 31.7148 17.8604 31.8126 18.9559 32.3092C19.9424 32.7561 19.8555 32.5437 19.6376 33.7338C19.4117 34.9669 18.7741 35.9023 17.5342 36.3084C17.19 36.421 16.8184 36.4512 16.3318 36.543H16.3311Z" fill="white"/>
<path d="M23.2574 34.5098C23.1017 34.9923 22.94 35.513 22.7655 36.0283C21.9334 38.4816 21.0999 40.9349 20.2618 43.3862C20.1328 43.7635 19.9911 44.1375 19.826 44.5C19.703 44.768 19.4744 44.9108 19.1703 44.8109C18.8983 44.7218 18.7586 44.3908 18.8668 44.0503C19.1028 43.3085 19.3581 42.5727 19.6094 41.8363C20.3961 39.5304 21.1835 37.2252 21.9721 34.92C22.0517 34.6888 22.1252 34.4522 22.2342 34.2351C22.3578 33.9885 22.5663 33.8317 22.8598 33.9081C23.1351 33.9798 23.226 34.2063 23.2581 34.5105L23.2574 34.5098Z" fill="url(#paint1_linear_152_347)"/>
<path d="M25.6594 35.3341C25.5438 35.6926 25.4088 36.1268 25.2638 36.5571C24.3554 39.2442 23.4444 41.9307 22.5334 44.6173C22.4586 44.8377 22.3964 45.0662 22.2881 45.27C22.1511 45.5279 21.9192 45.662 21.6191 45.5755C21.3658 45.5025 21.1933 45.1922 21.2809 44.894C21.4593 44.2862 21.6739 43.6891 21.8771 43.088C22.6771 40.7151 23.4785 38.3429 24.2799 35.97C24.3828 35.6645 24.4824 35.3569 24.6021 35.058C24.7037 34.804 25.0479 34.6244 25.2831 34.6881C25.5679 34.7652 25.6507 34.9829 25.6594 35.3341Z" fill="url(#paint2_linear_152_347)"/>
<path d="M63.56 13.4523C65.3733 13.4523 66.8 13.8856 67.84 14.7523C68.88 15.6189 69.4 16.8123 69.4 18.3323C69.4 19.8523 68.88 21.0456 67.84 21.9123C66.8 22.7789 65.3733 23.2123 63.56 23.2123H60.1V27.4523H58.1V13.4523H63.56ZM63.5 21.4723C64.7667 21.4723 65.7333 21.2056 66.4 20.6723C67.0667 20.1256 67.4 19.3456 67.4 18.3323C67.4 17.3189 67.0667 16.5456 66.4 16.0123C65.7333 15.4656 64.7667 15.1923 63.5 15.1923H60.1V21.4723H63.5ZM72.3383 13.4523H74.3383V25.7123H81.9183V27.4523H72.3383V13.4523ZM93.1919 23.9523H85.7519L84.2119 27.4523H82.1519L88.4919 13.4523H90.4719L96.8319 27.4523H94.7319L93.1919 23.9523ZM92.4919 22.3523L89.4719 15.4923L86.4519 22.3523H92.4919ZM103.44 22.6123V27.4523H101.46V22.5723L95.9005 13.4523H98.0405L102.52 20.8323L107.02 13.4523H109L103.44 22.6123ZM120.215 20.1923C121.029 20.4189 121.669 20.8323 122.135 21.4323C122.602 22.0189 122.835 22.7656 122.835 23.6723C122.835 24.8856 122.375 25.8189 121.455 26.4723C120.549 27.1256 119.222 27.4523 117.475 27.4523H110.795V13.4523H117.075C118.675 13.4523 119.909 13.7723 120.775 14.4123C121.655 15.0523 122.095 15.9389 122.095 17.0723C122.095 17.8056 121.922 18.4389 121.575 18.9723C121.242 19.5056 120.789 19.9123 120.215 20.1923ZM112.795 15.0723V19.5523H116.895C117.922 19.5523 118.709 19.3656 119.255 18.9923C119.815 18.6056 120.095 18.0456 120.095 17.3123C120.095 16.5789 119.815 16.0256 119.255 15.6523C118.709 15.2656 117.922 15.0723 116.895 15.0723H112.795ZM117.395 25.8323C118.529 25.8323 119.382 25.6456 119.955 25.2723C120.529 24.8989 120.815 24.3123 120.815 23.5123C120.815 21.9523 119.675 21.1723 117.395 21.1723H112.795V25.8323H117.395ZM132.252 27.6123C130.839 27.6123 129.565 27.3056 128.432 26.6923C127.299 26.0656 126.405 25.2056 125.752 24.1123C125.112 23.0189 124.792 21.7989 124.792 20.4523C124.792 19.1056 125.112 17.8856 125.752 16.7923C126.405 15.6989 127.299 14.8456 128.432 14.2323C129.565 13.6056 130.839 13.2923 132.252 13.2923C133.652 13.2923 134.919 13.6056 136.052 14.2323C137.185 14.8456 138.072 15.6989 138.712 16.7923C139.352 17.8723 139.672 19.0923 139.672 20.4523C139.672 21.8123 139.352 23.0389 138.712 24.1323C138.072 25.2123 137.185 26.0656 136.052 26.6923C134.919 27.3056 133.652 27.6123 132.252 27.6123ZM132.252 25.8323C133.279 25.8323 134.199 25.5989 135.012 25.1323C135.839 24.6656 136.485 24.0256 136.952 23.2123C137.432 22.3856 137.672 21.4656 137.672 20.4523C137.672 19.4389 137.432 18.5256 136.952 17.7123C136.485 16.8856 135.839 16.2389 135.012 15.7723C134.199 15.3056 133.279 15.0723 132.252 15.0723C131.225 15.0723 130.292 15.3056 129.452 15.7723C128.625 16.2389 127.972 16.8856 127.492 17.7123C127.025 18.5256 126.792 19.4389 126.792 20.4523C126.792 21.4656 127.025 22.3856 127.492 23.2123C127.972 24.0256 128.625 24.6656 129.452 25.1323C130.292 25.5989 131.225 25.8323 132.252 25.8323ZM147.483 22.6123V27.4523H145.503V22.5723L139.943 13.4523H142.083L146.563 20.8323L151.063 13.4523H153.043L147.483 22.6123ZM62.18 47.6123C61.1267 47.6123 60.1067 47.4523 59.12 47.1323C58.1467 46.7989 57.38 46.3723 56.82 45.8523L57.56 44.2923C58.0933 44.7723 58.7733 45.1656 59.6 45.4723C60.44 45.7656 61.3 45.9123 62.18 45.9123C63.34 45.9123 64.2067 45.7189 64.78 45.3323C65.3533 44.9323 65.64 44.4056 65.64 43.7523C65.64 43.2723 65.48 42.8856 65.16 42.5923C64.8533 42.2856 64.4667 42.0523 64 41.8923C63.5467 41.7323 62.9 41.5523 62.06 41.3523C61.0067 41.0989 60.1533 40.8456 59.5 40.5923C58.86 40.3389 58.3067 39.9523 57.84 39.4323C57.3867 38.8989 57.16 38.1856 57.16 37.2923C57.16 36.5456 57.3533 35.8723 57.74 35.2723C58.14 34.6723 58.74 34.1923 59.54 33.8323C60.34 33.4723 61.3333 33.2923 62.52 33.2923C63.3467 33.2923 64.16 33.3989 64.96 33.6123C65.76 33.8256 66.4467 34.1323 67.02 34.5323L66.36 36.1323C65.7733 35.7589 65.1467 35.4789 64.48 35.2923C63.8133 35.0923 63.16 34.9923 62.52 34.9923C61.3867 34.9923 60.5333 35.1989 59.96 35.6123C59.4 36.0256 59.12 36.5589 59.12 37.2123C59.12 37.6923 59.28 38.0856 59.6 38.3923C59.92 38.6856 60.3133 38.9189 60.78 39.0923C61.26 39.2523 61.9067 39.4256 62.72 39.6123C63.7733 39.8656 64.62 40.1189 65.26 40.3723C65.9 40.6256 66.4467 41.0123 66.9 41.5323C67.3667 42.0523 67.6 42.7523 67.6 43.6323C67.6 44.3656 67.4 45.0389 67 45.6523C66.6 46.2523 65.9933 46.7323 65.18 47.0923C64.3667 47.4389 63.3667 47.6123 62.18 47.6123ZM80.6819 45.7123V47.4523H70.5219V33.4523H80.4019V35.1923H72.5219V39.4923H79.5419V41.1923H72.5219V45.7123H80.6819ZM93.2803 47.4523L90.2603 43.1523C89.887 43.1789 89.5936 43.1923 89.3803 43.1923H85.9203V47.4523H83.9203V33.4523H89.3803C91.1936 33.4523 92.6203 33.8856 93.6603 34.7523C94.7003 35.6189 95.2203 36.8123 95.2203 38.3323C95.2203 39.4123 94.9536 40.3323 94.4203 41.0923C93.887 41.8523 93.127 42.4056 92.1403 42.7523L95.4603 47.4523H93.2803ZM89.3203 41.4923C90.587 41.4923 91.5536 41.2189 92.2203 40.6723C92.887 40.1256 93.2203 39.3456 93.2203 38.3323C93.2203 37.3189 92.887 36.5456 92.2203 36.0123C91.5536 35.4656 90.587 35.1923 89.3203 35.1923H85.9203V41.4923H89.3203ZM110.612 33.4523L104.472 47.4523H102.492L96.3316 33.4523H98.4916L103.532 44.9523L108.612 33.4523H110.612ZM112.397 33.4523H114.397V47.4523H112.397V33.4523ZM124.848 47.6123C123.448 47.6123 122.182 47.3056 121.048 46.6923C119.928 46.0656 119.048 45.2123 118.408 44.1323C117.768 43.0389 117.448 41.8123 117.448 40.4523C117.448 39.0923 117.768 37.8723 118.408 36.7923C119.048 35.6989 119.935 34.8456 121.068 34.2323C122.202 33.6056 123.468 33.2923 124.868 33.2923C125.962 33.2923 126.962 33.4789 127.868 33.8523C128.775 34.2123 129.548 34.7523 130.188 35.4723L128.888 36.7323C127.835 35.6256 126.522 35.0723 124.948 35.0723C123.908 35.0723 122.968 35.3056 122.128 35.7723C121.288 36.2389 120.628 36.8856 120.148 37.7123C119.682 38.5256 119.448 39.4389 119.448 40.4523C119.448 41.4656 119.682 42.3856 120.148 43.2123C120.628 44.0256 121.288 44.6656 122.128 45.1323C122.968 45.5989 123.908 45.8323 124.948 45.8323C126.508 45.8323 127.822 45.2723 128.888 44.1523L130.188 45.4123C129.548 46.1323 128.768 46.6789 127.848 47.0523C126.942 47.4256 125.942 47.6123 124.848 47.6123ZM143.201 45.7123V47.4523H133.041V33.4523H142.921V35.1923H135.041V39.4923H142.061V41.1923H135.041V45.7123H143.201ZM150.52 47.6123C149.467 47.6123 148.447 47.4523 147.46 47.1323C146.487 46.7989 145.72 46.3723 145.16 45.8523L145.9 44.2923C146.433 44.7723 147.113 45.1656 147.94 45.4723C148.78 45.7656 149.64 45.9123 150.52 45.9123C151.68 45.9123 152.547 45.7189 153.12 45.3323C153.693 44.9323 153.98 44.4056 153.98 43.7523C153.98 43.2723 153.82 42.8856 153.5 42.5923C153.193 42.2856 152.807 42.0523 152.34 41.8923C151.887 41.7323 151.24 41.5523 150.4 41.3523C149.347 41.0989 148.493 40.8456 147.84 40.5923C147.2 40.3389 146.647 39.9523 146.18 39.4323C145.727 38.8989 145.5 38.1856 145.5 37.2923C145.5 36.5456 145.693 35.8723 146.08 35.2723C146.48 34.6723 147.08 34.1923 147.88 33.8323C148.68 33.4723 149.673 33.2923 150.86 33.2923C151.687 33.2923 152.5 33.3989 153.3 33.6123C154.1 33.8256 154.787 34.1323 155.36 34.5323L154.7 36.1323C154.113 35.7589 153.487 35.4789 152.82 35.2923C152.153 35.0923 151.5 34.9923 150.86 34.9923C149.727 34.9923 148.873 35.1989 148.3 35.6123C147.74 36.0256 147.46 36.5589 147.46 37.2123C147.46 37.6923 147.62 38.0856 147.94 38.3923C148.26 38.6856 148.653 38.9189 149.12 39.0923C149.6 39.2523 150.247 39.4256 151.06 39.6123C152.113 39.8656 152.96 40.1189 153.6 40.3723C154.24 40.6256 154.787 41.0123 155.24 41.5323C155.707 42.0523 155.94 42.7523 155.94 43.6323C155.94 44.3656 155.74 45.0389 155.34 45.6523C154.94 46.2523 154.333 46.7323 153.52 47.0923C152.707 47.4389 151.707 47.6123 150.52 47.6123Z" fill="url(#paint3_linear_152_347)"/>
<defs>
<linearGradient id="paint0_linear_152_347" x1="5.65167" y1="14.8896" x2="44.7142" y2="16.2231" gradientUnits="userSpaceOnUse">
<stop stop-color="#8BA0AD"/>
<stop offset="1" stop-color="#CDE1ED"/>
</linearGradient>
<linearGradient id="paint1_linear_152_347" x1="19.2577" y1="36.3527" x2="24.1087" y2="36.4588" gradientUnits="userSpaceOnUse">
<stop stop-color="#8BA0AD"/>
<stop offset="1" stop-color="#CDE1ED"/>
</linearGradient>
<linearGradient id="paint2_linear_152_347" x1="21.6829" y1="37.133" x2="26.505" y2="37.2382" gradientUnits="userSpaceOnUse">
<stop stop-color="#8BA0AD"/>
<stop offset="1" stop-color="#CDE1ED"/>
</linearGradient>
<linearGradient id="paint3_linear_152_347" x1="69.06" y1="19.4499" x2="212.487" y2="45.7036" gradientUnits="userSpaceOnUse">
<stop stop-color="#8BA0AD"/>
<stop offset="1" stop-color="#CDE1ED"/>
</linearGradient>
</defs>
</svg>
