<svg width="40" height="61" viewBox="0 0 40 61" fill="none" xmlns="http://www.w3.org/2000/svg">
<path d="M36.0723 52.0342C35.9733 52.1655 35.9112 52.2707 35.8276 52.3558C34.0377 54.1772 32.0005 55.6401 29.6772 56.7109C27.8545 57.5513 25.9469 58.088 23.9799 58.4217C21.9641 58.7635 19.9328 58.8252 17.8943 58.6556C17.6149 58.6322 17.6864 58.4566 17.6984 58.2971C17.7586 57.4869 17.8722 56.6768 17.8716 55.8666C17.8689 54.0244 17.2914 52.3619 16.1511 50.9097C15.6057 50.2155 14.9053 49.6988 14.1273 49.2987C13.2771 48.8611 12.3754 48.9717 11.4798 49.1225C10.5427 49.2806 9.59966 49.3798 8.65791 49.2297C7.66068 49.0716 6.81585 48.6266 6.31657 47.6965C6.18222 47.4465 6.13276 47.1517 6.03117 46.8823C5.99574 46.7878 5.9396 46.6605 5.8614 46.6296C4.56741 46.1237 4.12828 44.9946 3.74664 43.7984C3.55615 43.202 3.62031 42.8133 4.16237 42.3918C4.64494 42.0165 4.95841 41.4215 5.33471 40.9142C5.39353 40.8344 5.38751 40.7058 5.43898 40.4786C4.42972 40.7567 3.59024 41.1628 2.83831 41.7813C2.18931 41.394 1.98344 40.2943 2.48874 39.7247C3.29481 38.8174 4.12093 37.9281 4.93101 37.0241C5.7451 36.1161 6.4322 35.1304 6.94217 34.0086C7.50428 32.7729 8.08176 31.5385 8.91056 30.4476C10.1611 28.8011 11.7224 27.5426 13.6019 26.6909C14.2583 26.3934 14.9327 26.1354 15.6325 25.8452C15.4086 25.3238 15.1606 24.7924 14.9507 24.247C14.0143 21.8151 13.0873 19.3806 12.1609 16.9447C12.07 16.7061 12.0058 16.4562 11.9403 16.2089C11.8935 16.032 11.8053 15.965 11.6275 16.0393C11.3996 16.1345 11.2633 16.0306 11.1309 15.8423C10.8629 15.4604 10.6036 15.0643 10.2814 14.7306C9.82825 14.2615 9.21066 14.2079 8.5904 14.5081C8.48012 14.5617 8.37318 14.6207 8.26624 14.6803C7.54037 15.0851 7.44145 15.2848 7.59318 16.107C7.63127 16.3141 7.6286 16.4776 7.41672 16.5868C6.63605 16.9889 5.85739 17.3963 5.07739 17.7997C5.05065 17.8138 5.01389 17.8078 4.95507 17.8145C4.74119 17.3702 4.5253 16.9219 4.30875 16.4729C3.84422 15.5093 3.38036 14.5463 2.91584 13.5827C2.70663 13.1484 2.73003 13.0854 3.16113 12.8764C3.74129 12.5949 4.32078 12.3101 4.89826 12.024C5.31266 11.8183 5.43029 11.8518 5.67626 12.2565C5.92824 12.672 5.93893 12.6968 6.37405 12.5065C6.74767 12.3436 7.11328 12.1446 7.44613 11.9101C7.88726 11.5998 7.90932 11.0764 8.02361 10.6013C8.06639 10.4251 8.16063 10.1825 8.29832 10.1215C9.93385 9.39644 11.552 8.61374 13.2363 8.02135C14.8979 7.43701 16.5341 7.85851 18.0821 8.60101C19.4269 9.24566 20.6086 10.1342 21.7241 11.1153C21.8204 11.1997 21.8952 11.3096 22.0195 11.455C21.412 11.6139 20.886 11.7097 20.3359 11.4061C19.3387 10.856 18.3073 10.3762 17.1464 10.3058C16.5188 10.2676 15.9025 10.342 15.3451 10.6757C14.8699 10.9598 14.5611 11.5542 14.6633 12.099C14.7703 12.666 14.9039 13.2315 15.071 13.783C15.1653 14.0933 15.2722 14.348 14.797 14.4331C14.8424 14.5604 14.8658 14.6676 14.916 14.7614C16.4499 17.6409 17.9905 20.5177 19.5198 23.3999C19.7751 23.8818 19.995 24.383 20.2082 24.8856C20.2884 25.0746 20.3873 25.1362 20.5832 25.1175C20.9588 25.0813 21.3418 25.0953 21.7121 25.0317C22.6612 24.8682 23.2748 24.1531 23.3997 23.0937C23.5 22.2413 23.5495 21.3809 23.6892 20.5358C23.9124 19.1849 24.1276 17.8272 24.4638 16.5017C24.808 15.1447 25.2258 13.7978 25.7324 12.4937C26.7938 9.76232 28.3438 7.32443 30.4398 5.26649C31.7037 4.0261 33.1127 2.972 34.8144 2.40039C35.2796 2.24425 35.7909 2.19801 36.2855 2.16383C36.7206 2.13368 37.1002 2.36353 37.2339 2.77096C37.4511 3.43237 37.6483 4.11388 37.7332 4.8021C38.0059 7.02957 37.9036 9.24901 37.5253 11.4644C37.1183 13.8507 36.4258 16.1466 35.4794 18.3667C34.5938 20.4434 33.4876 22.3988 32.2017 24.2523C31.5734 25.1583 30.9251 26.0509 30.3188 26.9717C29.7928 27.7705 29.7407 28.6255 30.0989 29.5242C30.5648 30.6922 31.0681 31.8522 31.4237 33.055C32.0306 35.1096 32.1495 37.2151 31.8334 39.3461C31.6095 40.8546 31.1623 42.2966 30.645 43.722C30.117 45.1762 30.4632 46.4862 31.3221 47.7005C32.1936 48.9328 33.3119 49.9166 34.5002 50.8273C35.0115 51.2193 35.5215 51.6127 36.0723 52.0362V52.0342ZM20.894 47.2093C22.3584 47.1858 23.1411 46.633 23.502 45.4683C23.7159 44.7774 23.9498 44.0919 24.1824 43.407C24.9912 41.0248 25.8146 38.6472 26.6066 36.2595C26.8319 35.58 27.0865 34.8838 26.7704 34.146C26.4563 33.4122 26.6481 32.7012 26.9214 32.0056C27.118 31.505 27.4588 31.1351 27.9795 30.9649C28.3518 30.843 28.6846 30.3772 28.5703 30.006C28.5075 29.8016 28.323 29.553 28.1346 29.4826C27.0625 29.0826 25.9723 28.7314 24.8896 28.3608C24.522 28.2349 24.161 28.0861 23.7894 27.9735C23.4579 27.873 23.1658 28.0151 23.0041 28.3159C22.7868 28.7193 22.8109 29.0356 23.0248 29.2923C23.1625 29.4571 23.3369 29.6649 23.3403 29.8559C23.3583 30.9059 23.0656 31.8716 22.1539 32.468C21.5898 32.8372 21.2502 33.3117 21.0357 33.9067C20.624 35.048 20.2276 36.1952 19.8366 37.3438C19.0934 39.525 18.3501 41.7069 17.6243 43.8942C17.4404 44.4484 17.526 45.0093 17.8355 45.5005C18.568 46.6625 19.6702 47.161 20.8946 47.2093H20.894ZM33.3874 9.70536C32.9162 9.53582 32.4764 9.38237 32.0406 9.21953C31.8434 9.14581 31.7345 9.21953 31.6389 9.39309C31.161 10.2609 30.6704 11.1213 30.1965 11.9918C30.1203 12.1319 30.0809 12.3061 30.0749 12.4669C30.0548 13.0352 30.0729 13.6048 30.0435 14.1717C30.0261 14.5121 29.996 14.866 29.8884 15.1856C28.8711 18.2152 27.8365 21.2388 26.8065 24.2637C26.4335 25.36 26.0559 26.455 25.6936 27.5547C25.6609 27.6539 25.6896 27.8609 25.7478 27.8871C26.0873 28.0378 26.4436 28.1491 26.8132 28.2804C26.8773 28.1136 26.9288 27.9916 26.9716 27.867C28.3197 23.9273 29.6658 19.987 31.0153 16.048C31.1196 15.7431 31.1964 15.4121 31.3722 15.1514C31.7879 14.5342 32.2571 13.9533 32.7016 13.3548C32.7738 13.2577 32.8707 13.1551 32.8881 13.0446C33.0605 11.9456 33.2189 10.8446 33.3867 9.70603L33.3874 9.70536ZM16.3303 36.543C16.8168 36.4512 17.1885 36.421 17.5327 36.3085C18.7725 35.9024 19.4102 34.9669 19.6361 33.7339C19.854 32.5437 19.9409 32.7562 18.9543 32.3092C17.8589 31.8126 16.7153 31.7148 15.6732 32.4231C14.4976 33.2232 14.2275 34.4985 14.1139 35.8159C14.1079 35.8823 14.2048 36.0049 14.275 36.0237C14.9908 36.2146 15.7113 36.3889 16.3296 36.543H16.3303Z" fill="#8CAABE"/>
<path d="M20.8951 47.2093C19.6707 47.161 18.5685 46.6625 17.8359 45.5005C17.5258 45.0086 17.4403 44.4484 17.6247 43.8942C18.3506 41.7069 19.0938 39.525 19.8371 37.3438C20.2288 36.1952 20.6244 35.048 21.0362 33.9067C21.2507 33.3117 21.5902 32.8372 22.1544 32.468C23.066 31.8716 23.3588 30.9066 23.3407 29.8559C23.3374 29.6649 23.163 29.4571 23.0253 29.2923C22.8114 29.0356 22.7873 28.7193 23.0045 28.3159C23.167 28.015 23.459 27.873 23.7899 27.9735C24.1615 28.0861 24.5224 28.2348 24.89 28.3608C25.9728 28.7314 27.063 29.0825 28.135 29.4826C28.3235 29.553 28.508 29.8016 28.5708 30.006C28.6851 30.3772 28.3523 30.8429 27.98 30.9649C27.4593 31.1358 27.1178 31.5057 26.9219 32.0056C26.6492 32.7012 26.4567 33.4122 26.7709 34.146C27.087 34.8838 26.8324 35.58 26.6071 36.2595C25.8158 38.6478 24.9916 41.0248 24.1829 43.407C23.9503 44.0919 23.7164 44.7774 23.5025 45.4683C23.1416 46.633 22.3589 47.1858 20.8945 47.2093H20.8951ZM23.2585 34.5098C23.2264 34.2063 23.1362 33.9791 22.8602 33.9074C22.5674 33.831 22.3589 33.9878 22.2346 34.2344C22.1256 34.4522 22.0514 34.6881 21.9726 34.9193C21.1839 37.2245 20.3958 39.5297 19.6098 41.8356C19.3585 42.5727 19.1032 43.3079 18.8673 44.0497C18.759 44.3901 18.8993 44.7205 19.1707 44.8103C19.4748 44.9101 19.7034 44.7674 19.8264 44.4993C19.9921 44.1375 20.1338 43.7629 20.2622 43.3856C21.1003 40.9343 21.9345 38.481 22.7659 36.0277C22.941 35.5123 23.1021 34.9917 23.2579 34.5092L23.2585 34.5098ZM25.6594 35.3341C25.6507 34.983 25.5678 34.7645 25.2831 34.6881C25.0478 34.6244 24.7036 34.804 24.602 35.058C24.4823 35.3569 24.3827 35.6645 24.2798 35.97C23.4778 38.3423 22.677 40.7152 21.877 43.088C21.6745 43.6885 21.4599 44.2862 21.2808 44.894C21.1932 45.1922 21.3657 45.5025 21.619 45.5755C21.9191 45.662 22.151 45.528 22.288 45.27C22.3963 45.0662 22.4585 44.8377 22.5333 44.6173C23.4443 41.9308 24.3553 39.2442 25.2637 36.5571C25.4094 36.1268 25.5437 35.6926 25.6594 35.3341Z" fill="white"/>
<path d="M33.3875 9.70535C33.2197 10.8439 33.0613 11.9449 32.8889 13.0439C32.8715 13.1545 32.7746 13.257 32.7024 13.3542C32.2579 13.9519 31.7887 14.5336 31.373 15.1507C31.1972 15.4114 31.121 15.7425 31.0161 16.0474C29.6666 19.9863 28.3198 23.9266 26.9724 27.8663C26.9296 27.9909 26.8781 28.1129 26.814 28.2797C26.445 28.1484 26.0881 28.0372 25.7486 27.8864C25.6904 27.8609 25.6617 27.6532 25.6944 27.554C26.0567 26.4543 26.4343 25.3594 26.8073 24.263C27.8373 21.2381 28.8719 18.2145 29.8892 15.1849C29.9968 14.8653 30.0262 14.5115 30.0443 14.171C30.0737 13.6034 30.055 13.0338 30.0757 12.4662C30.0817 12.3061 30.1211 12.1312 30.1973 11.9911C30.6705 11.1206 31.1618 10.2602 31.6397 9.3924C31.7353 9.21817 31.8442 9.14513 32.0414 9.21884C32.4778 9.38168 32.917 9.53514 33.3882 9.70468L33.3875 9.70535Z" fill="white"/>
<path d="M16.3311 36.543C15.7129 36.3889 14.9924 36.2146 14.2765 36.0236C14.207 36.0049 14.1101 35.8822 14.1154 35.8159C14.2291 34.4984 14.4984 33.2232 15.6748 32.4231C16.7161 31.7148 17.8604 31.8126 18.9559 32.3092C19.9424 32.7561 19.8555 32.5437 19.6376 33.7338C19.4117 34.9669 18.7741 35.9023 17.5342 36.3084C17.19 36.421 16.8184 36.4512 16.3318 36.543H16.3311Z" fill="white"/>
<path d="M23.2574 34.5098C23.1017 34.9923 22.94 35.513 22.7655 36.0283C21.9334 38.4816 21.0999 40.9349 20.2618 43.3862C20.1328 43.7635 19.9911 44.1374 19.826 44.5C19.703 44.768 19.4744 44.9108 19.1703 44.8109C18.8983 44.7218 18.7586 44.3907 18.8668 44.0503C19.1028 43.3085 19.3581 42.5727 19.6094 41.8363C20.3961 39.5304 21.1835 37.2252 21.9721 34.9199C22.0517 34.6888 22.1252 34.4522 22.2342 34.2351C22.3578 33.9885 22.5663 33.8317 22.8598 33.9081C23.1351 33.9798 23.226 34.2063 23.2581 34.5105L23.2574 34.5098Z" fill="#8CAABE"/>
<path d="M25.6594 35.3341C25.5438 35.6926 25.4088 36.1268 25.2638 36.557C24.3554 39.2442 23.4444 41.9307 22.5334 44.6172C22.4586 44.8377 22.3964 45.0662 22.2881 45.2699C22.1511 45.5279 21.9192 45.662 21.6191 45.5755C21.3658 45.5025 21.1933 45.1922 21.2809 44.894C21.4593 44.2862 21.6739 43.6891 21.8771 43.088C22.6771 40.7151 23.4785 38.3429 24.2799 35.97C24.3828 35.6644 24.4824 35.3569 24.6021 35.058C24.7037 34.804 25.0479 34.6244 25.2831 34.6881C25.5679 34.7651 25.6507 34.9829 25.6594 35.3341Z" fill="#8CAABE"/>
</svg>
